Get Him to the Greek (2010) *1080p*       



Verenigde Staten
Komedie
109 minuten

geregisseerd door Nicholas Stoller
met Jonah Hill, Russell Brand en Rose Byrne

Aaron Greenberg (Jonah Hill) is een gedreven, net afgestudeerde jongen die stage wil lopen bij een platenmaatschappij. Zijn grote droom begint als hij de Engelse muzikant Aldous Snow (Russell Brand) naar een concert moet brengen in het 'Los Angeles Greek Theater'...


English

A record company intern is hired to accompany out-of-control British rock star Aldous Snow to a concert at L.A.'s Greek Theater. 
 
Categorie : Beeld 
Formaat : x264HD 
Bron : Retail
High Definition info:

***Source:Get Him to The Greek 2010 UNRATED 1080p BluRay x264-SpaceHD 
***Audio:DTS English 
***Video:8488 Kbps
***Subs:Custom NL 
***Vertaling:SRT, thanks 
***Formaat:MKV 
***Bewerking:Jogabonito 
 
Ondertitels : Nederlands (instelbaar)

Format                           : Matroska
File size                        : 7.95 GiB
Duration                         : 1h 53mn
Overall bit rate                 : 9 997 Kbps
Encoded date                     : UTC 2010-09-21 14:06:27
Writing application              : mkvmerge v3.3.0 ('Language') built on Mar 24 2010 14:59:24
Writing library                  : libebml v0.8.0 + libmatroska v0.9.0

Video
ID                               : 1
Format                           : AVC
Format/Info                      : Advanced Video Codec
Format profile                   : Main@L5.0
Format settings, CABAC           : Yes
Format settings, ReFrames        : 8 frames
Muxing mode                      : Container profile=Unknown@5.0
Codec ID                         : V_MPEG4/ISO/AVC
Duration                         : 1h 53mn
Bit rate                         : 8 488 Kbps
Width                            : 1 920 pixels
Height                           : 1 040 pixels
Display aspect ratio             : 16:9
Frame rate                       : 23.976 fps
Color space                      : YUV
Chroma subsampling               : 4:2:0
Bit depth                        : 8 bits
Scan type                        : Progressive
Bits/(Pixel*Frame)               : 0.177
Stream size                      : 6.59 GiB (83%)
Writing library                  : x264 core 98 r1649 c54c47d
Encoding settings                : cabac=1 / ref=9 / deblock=1:-2:-1 / analyse=0x1:0x131 / me=hex / subme=9 / psy=1 / psy_rd=1.00:0.15 / mixed_ref=1 / me_range=16 / chroma_me=1 / trellis=1 / 8x8dct=0 / cqm=0 / deadzone=21,11 / fast_pskip=1 / chroma_qp_offset=-3 / threads=6 / sliced_threads=0 / nr=0 / decimate=1 / interlaced=0 / constrained_intra=0 / bframes=5 / b_pyramid=1 / b_adapt=1 / b_bias=0 / direct=3 / weightb=1 / weightp=2 / keyint=250 / keyint_min=25 / scenecut=40 / intra_refresh=0 / rc_lookahead=50 / rc=2pass / mbtree=1 / bitrate=8488 / ratetol=1.0 / qcomp=0.60 / qpmin=10 / qpmax=51 / qpstep=4 / cplxblur=20.0 / qblur=0.5 / ip_ratio=1.40 / aq=1:1.50
Language                         : English

Audio
ID                               : 2
Format                           : DTS
Format/Info                      : Digital Theater Systems
Codec ID                         : A_DTS
Duration                         : 1h 53mn
Bit rate mode                    : Constant
Bit rate                         : 1 510 Kbps
Channel(s)                       : 6 channels
Channel positions                : Front: L C R, Side: L R, LFE
Sampling rate                    : 48.0 KHz
Bit depth                        : 24 bits
Video delay                      : 10ms
Stream size                      : 1.20 GiB (15%)
Title                            : 3/2+1
Language                         : English

Text
ID                               : 3
Format                           : UTF-8
Codec ID                         : S_TEXT/UTF8
Codec ID/Info                    : UTF-8 Plain Text
Language                         : Dutch

Menu
00:00:00.000                     : en:Chapter 00
00:06:41.275                     : en:Chapter 01
00:15:37.269                     : en:Chapter 02
00:21:30.914                     : en:Chapter 03
00:29:00.864                     : en:Chapter 04
00:32:44.962                     : en:Chapter 05
00:38:26.679                     : en:Chapter 06
00:42:08.150                     : en:Chapter 07
00:46:56.271                     : en:Chapter 08
00:50:17.097                     : en:Chapter 09
00:56:39.896                     : en:Chapter 10
01:00:59.739                     : en:Chapter 11
01:08:03.913                     : en:Chapter 12
01:15:48.418                     : en:Chapter 13
01:18:10.936                     : en:Chapter 14
01:23:46.980                     : en:Chapter 15
01:28:29.303                     : en:Chapter 16
01:32:21.202                     : en:Chapter 17
01:36:56.685                     : en:Chapter 18
01:43:10.100                     : en:Chapter 19

 
Genre : Komedie
 
Weblink :  http://www.moviemeter.nl/film/63184
Weblink :  http://www.imdb.com/title/tt1226229

******************************************

Brought to you by 


2Lions Team

meer zien??
Kom dan eens kijken op ons forum 
                         
http://www.2lions-site.nl


2Lions the site to be for all your Dutch MOVIES and more

******************************************


DON T HIT AND RUN Niet gelijk afhaken als de FILM binnen is blijf seeden. 

Don`t quit after you finished the download, but keep seeding


There are fake torrents from uploaders who use our team name.
Those are not ours, or members from our team.
We 2Lions-Team are not responsible for the fake posts on our name

Wij 2Lions-Team zijn niet verantwoordelijk voor die zieke FAKE posten die op onze naam worden gedaan



Please check our site !!!
                        
http://www.2lions-site.nl 


 
  
 
      

 
 
 
